<?xml version="1.0" encoding="utf-8"?>
<!-- Generator: Adobe Illustrator 18.0.0, SVG Export Plug-In . SVG Version: 6.00 Build 0)  -->
<!DOCTYPE svg PUBLIC "-//W3C//DTD SVG 1.1//EN" "http://www.w3.org/Graphics/SVG/1.1/DTD/svg11.dtd">
<svg version="1.1" id="Layer_1" xmlns="http://www.w3.org/2000/svg" xmlns:xlink="http://www.w3.org/1999/xlink" x="0px" y="0px"
	 viewBox="0 0 300 100" enable-background="new 0 0 300 100" xml:space="preserve">
<g>
	<g>
		<g>
			<path fill="#1D1D1D" d="M66.1,89.7l-1.9,5.8c10.6,0.9,21-0.2,30.5-2.7c-9.5-2.6-18.3-6.6-25.7-11.8l-1.9,5.8c0,0-0.2-0.1-0.7-0.2
				c-0.2-0.1-0.5-0.2-0.8-0.3c-0.2-0.1-0.3-0.1-0.5-0.2c-1.2-0.4-2.4-0.9-3.6-1.4c-5.2-2.1-11-5.1-16.7-9.1c-2.9-2-5.7-4.2-8.4-6.7
				c-2.7-2.5-5.3-5.1-7.7-7.9c-4.8-5.6-8.9-11.9-11.9-18.2c-3-6.3-5-12.5-6.2-17.9c-1.2-5.4-1.7-10.1-1.9-13.3C8.5,10,8.5,9,8.4,8.1
				c0-0.9,0-1.1,0-1.1H5.2c0,0,0,0.2,0,1.1c0,0.9,0,2.1,0.1,3.8c0.2,3.4,0.7,8.1,2,13.7c1.3,5.6,3.4,12.1,6.5,18.6
				c3.2,6.5,7.4,13,12.4,18.8c2.5,2.9,5.2,5.7,8,8.2c2.8,2.5,5.7,4.9,8.7,6.9c5.9,4.1,11.9,7.3,17.3,9.4c1.3,0.5,2.6,1,3.8,1.5
				c0.2,0.1,0.3,0.1,0.5,0.2c0.3,0.1,0.6,0.2,0.8,0.3C65.8,89.6,66.1,89.7,66.1,89.7z"/>
		</g>
	</g>
</g>
<g>
	<g>
		<g>
			<path fill="#1D1D1D" d="M287.8,65.9l-5.8,1.9c5.2,7.5,9.2,16.2,11.8,25.7c2.5-9.5,3.6-19.9,2.8-30.5l-5.8,1.9
				c0,0-0.1-0.3-0.2-0.7c-0.1-0.2-0.2-0.5-0.3-0.8c-0.1-0.2-0.1-0.3-0.2-0.5c-0.5-1.2-0.9-2.5-1.5-3.8c-2.2-5.3-5.3-11.4-9.4-17.3
				c-2-3-4.4-5.9-6.9-8.7c-2.6-2.8-5.3-5.5-8.2-8c-5.8-5-12.4-9.2-18.9-12.4c-6.5-3.1-13-5.2-18.6-6.5c-5.6-1.3-10.4-1.8-13.8-2
				c-1.7-0.1-2.8-0.1-3.7-0.1c-0.9,0-1.2,0-1.2,0v3.2c0,0,0.3,0,1.1,0c0.9,0,2.1,0,3.7,0.1c3.2,0.2,7.8,0.7,13.3,1.9
				c5.4,1.2,11.6,3.2,17.9,6.2c6.3,3,12.5,7.1,18.2,11.9c2.8,2.4,5.5,5,7.9,7.7c2.4,2.7,4.7,5.5,6.6,8.4c4,5.7,7,11.5,9.1,16.7
				c0.5,1.3,1,2.5,1.4,3.6c0.1,0.2,0.1,0.3,0.2,0.5c0.1,0.3,0.2,0.6,0.3,0.8C287.8,65.7,287.8,65.9,287.8,65.9z"/>
		</g>
	</g>
</g>
<g>
	<g>
		<g>
			<polygon fill="#1D1D1D" points="173.6,73.8 169.3,78.2 195.1,92.8 180,67.2 175.8,71.6 108.3,5.4 106.1,7.6 			"/>
		</g>
	</g>
</g>
<g>
	<path fill="none" stroke="#333333" stroke-miterlimit="10" d="M134.3,57.6c0.4-1,1.4-2,3-3.1c1.3-1,2.2-1.7,2.6-2.1
		c0.6-0.6,0.9-1.4,0.9-2.1c0-0.6-0.2-1.2-0.5-1.6s-0.8-0.6-1.5-0.6c-0.9,0-1.5,0.3-1.8,1c-0.2,0.4-0.3,1-0.3,1.8h-2.8
		c0-1.3,0.3-2.3,0.7-3.1c0.8-1.5,2.2-2.2,4.2-2.2c1.6,0,2.8,0.4,3.8,1.3c0.9,0.9,1.4,2,1.4,3.5c0,1.1-0.3,2.1-1,2.9
		c-0.4,0.6-1.1,1.2-2.1,1.9l-1.2,0.8c-0.7,0.5-1.2,0.9-1.5,1.1s-0.5,0.5-0.7,0.8h6.5v2.6h-10.2C133.7,59.4,133.9,58.5,134.3,57.6z"
		/>
</g>
<g>
	<path fill="none" stroke="#333333" stroke-miterlimit="10" d="M244.9,33.9c0,0.6,0.1,1.1,0.3,1.5c0.4,0.7,1,1.1,1.9,1.1
		c0.6,0,1.1-0.2,1.5-0.6c0.4-0.4,0.6-1,0.6-1.7c0-1-0.4-1.6-1.2-2c-0.5-0.2-1.2-0.3-2.1-0.3v-2.1c0.9,0,1.6-0.1,2-0.3
		c0.6-0.3,1-0.9,1-1.7c0-0.6-0.2-1-0.5-1.4s-0.8-0.5-1.4-0.5c-0.7,0-1.2,0.2-1.5,0.7c-0.3,0.4-0.5,1-0.5,1.8h-2.7
		c0-0.7,0.2-1.4,0.4-2.1c0.2-0.6,0.6-1.1,1.1-1.6c0.4-0.3,0.8-0.6,1.4-0.8c0.5-0.2,1.2-0.3,1.9-0.3c1.4,0,2.6,0.4,3.4,1.1
		c0.9,0.7,1.3,1.7,1.3,3c0,0.9-0.3,1.6-0.8,2.2c-0.3,0.4-0.7,0.6-1,0.8c0.3,0,0.6,0.2,1.1,0.7c0.7,0.7,1.1,1.6,1.1,2.8
		c0,1.3-0.4,2.4-1.3,3.3c-0.9,1-2.2,1.4-3.9,1.4c-2.1,0-3.6-0.7-4.4-2.1c-0.4-0.7-0.7-1.7-0.7-2.9H244.9z"/>
</g>
<g>
	<path fill="none" stroke="#333333" stroke-miterlimit="10" d="M18.7,28.2v-2c0.9,0,1.6-0.1,1.9-0.2c0.6-0.1,1.1-0.4,1.4-0.8
		c0.3-0.3,0.4-0.6,0.6-1.1c0.1-0.3,0.1-0.5,0.1-0.6h2.4v14.9h-3V28.2H18.7z"/>
</g>
</svg>
